<svg xmlns="http://www.w3.org/2000/svg" viewBox="0 0 48.67 46.26"><defs><style>.cls-1{fill:#ffc425;}</style></defs><title>Asset 1</title><g id="Layer_2" data-name="Layer 2"><g id="Layer_1-2" data-name="Layer 1"><path class="cls-1" d="M29.32,20.5a26.75,26.75,0,0,0,6.28-1.09,8.54,8.54,0,0,1-3-3.43c-4.47-1-10.94-3.92-13.91-16L9.2,5.64S14.13,20.5,29.32,20.5"/><path class="cls-1" d="M38.87,9.32,33,12.75a13.83,13.83,0,0,0,5.81,6.94A24.88,24.88,0,0,1,26.85,22.9c-8.18,0-15.12-4.75-20.29-10.56L0,23.66S8.4,32,19.93,32c5.65,0,12.28-.54,19.23-7.9a18,18,0,0,1-2.77,4.14c-5.82,6.4-14.27,7.72-21.88,7.72l3.73,10.35C27.45,45.43,36.7,41.48,40.57,33a29.68,29.68,0,0,0,2.35-11.81,15.3,15.3,0,0,0,5.18,0L48.67,18c-2.62-.15-7.66-1.81-9.8-8.71"/></g></g></svg>